<svg width="4" height="6" viewBox="0 0 4 6"  xmlns="http://www.w3.org/2000/svg">
<path d="M1.26398 0.233655C1.11688 0.0878628 0.879446 0.0889221 0.733655 0.236021C0.587863 0.383119 0.588922 0.620554 0.736021 0.766346L1.61751 1.64C1.97525 1.99457 2.22065 2.23859 2.3867 2.44535C2.548 2.6462 2.60334 2.77521 2.61806 2.89075C2.62731 2.9633 2.62731 3.0367 2.61806 3.10925C2.60334 3.22479 2.548 3.3538 2.3867 3.55465C2.22065 3.76141 1.97525 4.00543 1.61751 4.36L0.736021 5.23365C0.588922 5.37945 0.587863 5.61688 0.733655 5.76398C0.879446 5.91108 1.11688 5.91214 1.26398 5.76635L2.16135 4.87695C2.49933 4.54198 2.77557 4.26821 2.97147 4.02427C3.17519 3.77061 3.32265 3.51314 3.36205 3.20408C3.37932 3.06857 3.37932 2.93143 3.36205 2.79592C3.32265 2.48686 3.17519 2.22939 2.97147 1.97573C2.77557 1.73179 2.49933 1.45802 2.16134 1.12305L1.26398 0.233655Z"/>
</svg>
