<svg width="16" height="16" viewBox="0 0 16 16" xmlns="http://www.w3.org/2000/svg">
<path d="M10.4375 0.5C10.5734 0.500006 10.7048 0.549232 10.8072 0.638575C10.9096 0.727919 10.9763 0.851335 10.9948 0.986L11 1.0625V2.80625C11.5403 2.91685 12.0363 3.18371 12.4263 3.57371C12.8163 3.96371 13.0832 4.45966 13.1937 5H14.9375C15.08 5.00004 15.2172 5.05418 15.3213 5.15148C15.4255 5.24878 15.4888 5.38197 15.4985 5.52416C15.5082 5.66635 15.4636 5.80692 15.3737 5.91747C15.2837 6.02803 15.1552 6.10032 15.014 6.11975L14.9375 6.125H13.25V7.4375L14.4515 7.44125C14.5874 7.44126 14.7188 7.49048 14.8212 7.57982C14.9236 7.66917 14.9903 7.79258 15.0087 7.92725L15.014 8.00375C15.014 8.13968 14.9648 8.27101 14.8754 8.37345C14.7861 8.47589 14.6627 8.54251 14.528 8.561L14.4515 8.56625L13.25 8.5625V9.875H14.9375C15.0734 9.87501 15.2048 9.92423 15.3072 10.0136C15.4096 10.1029 15.4763 10.2263 15.4948 10.361L15.5 10.4375C15.5 10.5734 15.4508 10.7048 15.3614 10.8072C15.2721 10.9096 15.1487 10.9763 15.014 10.9948L14.9375 11H13.1937C13.0833 11.5405 12.8165 12.0366 12.4265 12.4267C12.0365 12.8169 11.5404 13.0839 11 13.1945V14.9382C11 15.0808 10.9458 15.218 10.8485 15.3221C10.7512 15.4262 10.618 15.4896 10.4758 15.4993C10.3337 15.509 10.1931 15.4644 10.0825 15.3744C9.97197 15.2845 9.89968 15.1559 9.88025 15.0148L9.875 14.9382V13.25H8.56175L8.5625 14.9382C8.56249 15.0742 8.51327 15.2055 8.42392 15.3079C8.33458 15.4104 8.21117 15.477 8.0765 15.4955L8 15.5C7.86407 15.5 7.73274 15.4508 7.6303 15.3614C7.52786 15.2721 7.46124 15.1487 7.44275 15.014L7.4375 14.9375L7.43675 13.2493H6.125V14.9375C6.12499 15.0734 6.07577 15.2048 5.98642 15.3072C5.89708 15.4096 5.77367 15.4763 5.639 15.4948L5.5625 15.5C5.42657 15.5 5.29524 15.4508 5.1928 15.3614C5.09036 15.2721 5.02374 15.1487 5.00525 15.014L5 14.9375V13.1937C4.45966 13.0832 3.96371 12.8163 3.57371 12.4263C3.18371 12.0363 2.91685 11.5403 2.80625 11H1.0625C0.919982 11 0.782794 10.9458 0.678656 10.8485C0.574518 10.7512 0.511195 10.618 0.501481 10.4758C0.491767 10.3337 0.536386 10.1931 0.626324 10.0825C0.716262 9.97197 0.844813 9.89968 0.986 9.88025L1.0625 9.875L2.75 9.87425V8.56175H1.39291C1.25698 8.56174 1.12565 8.51252 1.02321 8.42317C0.920767 8.33383 0.854142 8.21041 0.835656 8.07575L0.830406 7.99925C0.830412 7.86332 0.879638 7.73199 0.968982 7.62955C1.05832 7.52711 1.18174 7.46049 1.31641 7.442L1.39291 7.43675H2.75V6.12425L1.0625 6.125C0.926572 6.12499 0.795243 6.07577 0.692802 5.98642C0.590361 5.89708 0.523736 5.77367 0.50525 5.639L0.5 5.5625C0.500006 5.42657 0.549232 5.29524 0.638575 5.1928C0.727919 5.09036 0.851335 5.02374 0.986 5.00525L1.0625 5L2.80625 4.99925C2.91698 4.45905 3.1839 3.96325 3.57389 3.5734C3.96388 3.18354 4.45976 2.91679 5 2.80625V1.0625C5.00004 0.919982 5.05418 0.782794 5.15148 0.678656C5.24878 0.574518 5.38197 0.511195 5.52416 0.501481C5.66635 0.491767 5.80692 0.536386 5.91747 0.626324C6.02803 0.716262 6.10032 0.844813 6.11975 0.986L6.125 1.0625V2.74925H7.43675L7.4375 1.0625C7.43751 0.926572 7.48673 0.795243 7.57608 0.692802C7.66542 0.590361 7.78883 0.523736 7.9235 0.50525L8 0.5C8.13593 0.500006 8.26726 0.549232 8.3697 0.638575C8.47214 0.727919 8.53876 0.851335 8.55725 0.986L8.5625 1.0625L8.56175 2.74925H9.875V1.0625C9.87497 0.939437 9.91531 0.819762 9.98981 0.721818C10.0643 0.623874 10.1689 0.553067 10.2875 0.52025L10.361 0.50525L10.4375 0.5ZM10.4375 3.875H5.5625C5.11495 3.875 4.68573 4.05279 4.36926 4.36926C4.05279 4.68573 3.875 5.11495 3.875 5.5625V10.4375C3.875 10.8851 4.05279 11.3143 4.36926 11.6307C4.68573 11.9472 5.11495 12.125 5.5625 12.125H10.4375C10.8851 12.125 11.3143 11.9472 11.6307 11.6307C11.9472 11.3143 12.125 10.8851 12.125 10.4375V5.5625C12.125 5.11495 11.9472 4.68573 11.6307 4.36926C11.3143 4.05279 10.8851 3.875 10.4375 3.875ZM8.00375 5.75375C8.60049 5.75375 9.17278 5.9908 9.59474 6.41276C10.0167 6.83472 10.2537 7.40701 10.2537 8.00375C10.2537 8.60049 10.0167 9.17278 9.59474 9.59474C9.17278 10.0167 8.60049 10.2537 8.00375 10.2537C7.40701 10.2537 6.83472 10.0167 6.41276 9.59474C5.9908 9.17278 5.75375 8.60049 5.75375 8.00375C5.75375 7.40701 5.9908 6.83472 6.41276 6.41276C6.83472 5.9908 7.40701 5.75375 8.00375 5.75375ZM8.00375 6.87875C7.70538 6.87875 7.41923 6.99728 7.20825 7.20825C6.99728 7.41923 6.87875 7.70538 6.87875 8.00375C6.87875 8.30212 6.99728 8.58827 7.20825 8.79925C7.41923 9.01022 7.70538 9.12875 8.00375 9.12875C8.30212 9.12875 8.58827 9.01022 8.79925 8.79925C9.01022 8.58827 9.12875 8.30212 9.12875 8.00375C9.12875 7.70538 9.01022 7.41923 8.79925 7.20825C8.58827 6.99728 8.30212 6.87875 8.00375 6.87875Z" />
</svg>
