<svg width="20" height="12" viewBox="0 0 20 12" xmlns="http://www.w3.org/2000/svg">
<path d="M9.9996 4.005C11.0605 4.005 12.0779 4.42643 12.828 5.17657C13.5782 5.92672 13.9996 6.94413 13.9996 8.005C13.9996 9.06587 13.5782 10.0833 12.828 10.8334C12.0779 11.5836 11.0605 12.005 9.9996 12.005C8.93873 12.005 7.92131 11.5836 7.17117 10.8334C6.42102 10.0833 5.9996 9.06587 5.9996 8.005C5.9996 6.94413 6.42102 5.92672 7.17117 5.17657C7.92131 4.42643 8.93873 4.005 9.9996 4.005ZM9.9996 0.5C14.6126 0.5 18.5956 3.65 19.7006 8.064C19.749 8.25695 19.7188 8.46122 19.6166 8.63187C19.5144 8.80253 19.3485 8.9256 19.1556 8.974C18.9627 9.0224 18.7584 8.99217 18.5877 8.88997C18.4171 8.78776 18.294 8.62194 18.2456 8.429C17.7833 6.59181 16.7208 4.9616 15.2266 3.79704C13.7323 2.63248 11.892 2.00028 9.99754 2.00074C8.10309 2.0012 6.26304 2.6343 4.76937 3.79958C3.2757 4.96486 2.21395 6.59558 1.7526 8.433C1.70079 8.62193 1.57711 8.78309 1.40801 8.88201C1.23892 8.98094 1.03783 9.00977 0.847751 8.96235C0.657671 8.91493 0.493692 8.79501 0.390881 8.62825C0.288069 8.46149 0.254588 8.26113 0.297596 8.07C0.83987 5.90746 2.08906 3.98806 3.8468 2.61657C5.60455 1.24509 7.7701 0.500135 9.9996 0.5Z"  />
</svg>