<svg width="527" height="60" viewBox="0 0 527 60" fill="none" xmlns="http://www.w3.org/2000/svg">
<path d="M60.7002 15.0441H76.6988L83.9841 0.453735H67.7788L60.7002 15.0441Z" fill="#FF0041"/>
<path d="M14.7205 42.0047V36.9325H67.5911L74.8763 22.3395H14.7205V17.3425C14.7205 16.0738 15.7512 15.0416 17.0182 15.0416H52.6769L59.7555 0.448608H17.0182C7.71703 0.448608 0.149902 8.02601 0.149902 17.3398V41.9993C0.149902 51.3132 7.71703 58.8906 17.0182 58.8906H76.699L83.9843 44.2975H17.0182C15.7512 44.2975 14.7205 43.2654 14.7205 41.9993V42.0047Z" fill="white"/>
<path d="M311.473 32.9786C311.417 32.8253 311.352 32.6721 311.293 32.5216C311.288 32.5055 311.28 32.4894 311.275 32.4732C310.716 31.0916 309.967 29.7879 309.057 28.5945C305.632 23.9712 300.14 20.9768 293.95 20.9768H254.402C254.402 20.9768 254.394 20.9768 254.388 20.9768C254.383 20.9768 254.38 20.9768 254.375 20.9768C252.557 20.9768 251.084 19.5011 251.084 17.6813C251.084 15.8615 252.557 14.3858 254.375 14.3858C254.383 14.3858 254.391 14.3858 254.399 14.3858C254.407 14.3858 254.415 14.3858 254.423 14.3858H299.514L306.381 0.228271H254.262C244.518 0.228271 236.545 8.21156 236.545 17.9689V18.1194C236.545 27.5085 244.147 35.1209 253.524 35.1209L261.499 35.1746H291.759C294.344 35.1746 296.438 37.2713 296.438 39.8598C296.438 42.4483 294.344 44.5449 291.759 44.5449H243.49L236.655 58.6353H293.95C304.336 58.6353 312.754 50.2058 312.754 39.806C312.754 37.3976 312.297 35.0994 311.476 32.9839L311.473 32.9786Z" fill="white"/>
<path d="M182.341 22.1167L175.056 36.7097H222.488L229.776 22.1167H182.341Z" fill="white"/>
<path d="M411.934 14.8158H453.071L460.123 0.222778H411.934C402.627 0.222778 395.063 7.79749 395.063 17.1086V58.2884H409.507L409.625 36.3357H443.062L449.928 22.1782H410.723L409.639 22.1808V17.1113C409.639 15.8453 410.664 14.8185 411.937 14.8185L411.934 14.8158Z" fill="white"/>
<path fill-rule="evenodd" clip-rule="evenodd" d="M385.706 14.7785C385.588 11.2035 384.192 7.93221 381.948 5.37863C381.945 5.37594 381.943 5.37057 381.937 5.36788C381.782 5.19316 381.623 5.01845 381.462 4.85179C381.452 4.84104 381.438 4.8276 381.427 4.81685C381.272 4.65557 381.113 4.49967 380.952 4.34645C380.931 4.32495 380.909 4.30613 380.888 4.28462C380.735 4.13947 380.579 3.99971 380.418 3.86262C380.386 3.83574 380.354 3.80886 380.319 3.77929C380.168 3.65027 380.015 3.52393 379.86 3.40297C379.814 3.36803 379.768 3.33309 379.72 3.29814C379.575 3.18525 379.428 3.07504 379.28 2.97021C379.218 2.9272 379.156 2.88419 379.095 2.84118C378.958 2.74442 378.818 2.65034 378.679 2.55895C378.601 2.50788 378.52 2.45949 378.442 2.41111C378.314 2.33047 378.187 2.25252 378.056 2.17457C377.959 2.11812 377.863 2.06705 377.766 2.0106C377.648 1.94609 377.532 1.87889 377.412 1.81707C377.296 1.75793 377.178 1.70148 377.063 1.64235C376.958 1.59128 376.856 1.53752 376.749 1.48913C376.612 1.42462 376.472 1.36549 376.335 1.30635C376.247 1.26872 376.158 1.2284 376.067 1.19077C375.906 1.12626 375.745 1.06443 375.581 1.00261C375.508 0.97573 375.439 0.946165 375.366 0.921973C375.181 0.857462 374.996 0.795638 374.808 0.736502C374.754 0.720375 374.7 0.701558 374.647 0.68543C374.44 0.623607 374.231 0.564473 374.019 0.510714C373.984 0.50265 373.946 0.489206 373.911 0.481142C373.675 0.422006 373.436 0.368245 373.197 0.319861C373.186 0.319861 373.173 0.314486 373.162 0.311798C372.148 0.107512 371.095 0 370.022 0H334.811C326.186 0 319.119 6.87046 319.119 15.2704V44.4215H319.132C319.25 47.9965 320.646 51.2704 322.89 53.8213C322.893 53.824 322.895 53.8294 322.901 53.8321C323.057 54.0068 323.215 54.1815 323.376 54.3482C323.387 54.3589 323.4 54.3724 323.411 54.3831C323.567 54.5444 323.725 54.7003 323.886 54.8535C323.908 54.875 323.929 54.8938 323.95 54.9153C324.103 55.0605 324.259 55.2003 324.42 55.3373C324.452 55.3642 324.485 55.3911 324.52 55.4207C324.67 55.5497 324.823 55.676 324.979 55.797C325.024 55.8319 325.07 55.8669 325.118 55.9018C325.263 56.0147 325.411 56.1249 325.558 56.2297C325.62 56.2728 325.682 56.3158 325.744 56.3588C325.88 56.4555 326.02 56.5496 326.16 56.641C326.237 56.6921 326.318 56.7405 326.396 56.7888C326.525 56.8695 326.651 56.9474 326.782 57.0254C326.879 57.0818 326.976 57.1329 327.072 57.1894C327.19 57.2539 327.306 57.3211 327.427 57.3829C327.542 57.442 327.66 57.4985 327.776 57.5576C327.88 57.6087 327.982 57.6624 328.09 57.7108C328.227 57.7753 328.366 57.8345 328.503 57.8936C328.592 57.9312 328.68 57.9716 328.771 58.0092C328.933 58.0737 329.094 58.1355 329.257 58.1973C329.33 58.2242 329.4 58.2538 329.472 58.278C329.657 58.3425 329.843 58.4043 330.03 58.4635C330.084 58.4796 330.138 58.4984 330.192 58.5145C330.398 58.5763 330.608 58.6355 330.82 58.6892C330.855 58.6973 330.892 58.7108 330.927 58.7188C331.163 58.7779 331.402 58.8317 331.641 58.8801C331.652 58.8801 331.665 58.8855 331.676 58.8881C332.691 59.0924 333.743 59.2 334.817 59.2H370.027C378.652 59.2 385.72 52.3295 385.72 43.9296V14.7785H385.706ZM336.094 46.5046C334.779 45.6096 333.909 44.0989 333.909 42.3947V16.816C333.909 14.0823 336.143 11.8486 338.87 11.8486H365.974C366.999 11.8486 367.952 12.1631 368.747 12.7007C370.062 13.5958 370.932 15.1064 370.932 16.8106V42.3894C370.932 45.123 368.698 47.3567 365.971 47.3567H338.867C337.842 47.3567 336.889 47.0422 336.094 46.5046Z" fill="white"/>
<path d="M507.118 0.341187H466.66L459.608 14.9342H484.913V59.1487H485.117V59.2025H499.28V59.1487H499.355L499.473 31.1884L499.484 14.9342H499.492H525.892L526.15 0.341187H507.118Z" fill="white"/>
<path d="M149.02 0.50293V38.3846L108.186 0.50293H94.1147V58.8454H108.186V21.91L149.02 58.8454H163.094V0.50293H149.02Z" fill="white"/>
</svg>
