<svg width="20" height="20" viewBox="0 0 20 20" xmlns="http://www.w3.org/2000/svg">
<path fill-rule="evenodd" clip-rule="evenodd" d="M16.0141 3.69164C16.22 3.60496 16.4454 3.57507 16.6668 3.60507C16.8882 3.63507 17.0975 3.72386 17.273 3.86221C17.4484 4.00056 17.5836 4.1834 17.6644 4.39171C17.7452 4.60001 17.7687 4.82617 17.7324 5.04664L15.8424 16.5108C15.6591 17.6166 14.4457 18.2508 13.4316 17.7C12.5832 17.2391 11.3232 16.5291 10.1899 15.7883C9.62324 15.4175 7.88741 14.23 8.10074 13.385C8.28407 12.6625 11.2007 9.94747 12.8674 8.3333C13.5216 7.69914 13.2232 7.3333 12.4507 7.91664C10.5324 9.36497 7.45241 11.5675 6.43407 12.1875C5.53574 12.7341 5.06741 12.8275 4.50741 12.7341C3.48574 12.5641 2.53824 12.3008 1.76491 11.98C0.719907 11.5466 0.77074 10.11 1.76407 9.69164L16.0141 3.69164Z"/>
</svg>
