<svg width="20" height="20" viewBox="0 0 20 20"   xmlns="http://www.w3.org/2000/svg">
<mask id="mask0_167_2015" style="mask-type:alpha" maskUnits="userSpaceOnUse" x="0" y="0" width="20" height="20">
<rect width="20" height="20"  />
</mask>
<g mask="url(#mask0_167_2015)">
<path fill-rule="evenodd" clip-rule="evenodd" d="M17.8021 12.298C17.8021 12.298 19.4191 13.895 19.8191 14.634C19.8273 14.6444 19.8335 14.6563 19.8371 14.669C19.9998 14.9417 20.0408 15.1567 19.9601 15.314C19.8251 15.575 19.3681 15.706 19.2131 15.717H16.3551C16.1561 15.717 15.7421 15.665 15.2381 15.317C14.8531 15.048 14.4701 14.605 14.0991 14.172C13.5451 13.529 13.0661 12.971 12.5811 12.971C12.5199 12.9718 12.4592 12.9819 12.4011 13.001C12.0341 13.117 11.5681 13.64 11.5681 15.033C11.5681 15.469 11.2241 15.717 10.9831 15.717H9.67409C9.22809 15.717 6.90609 15.561 4.84709 13.39C2.32409 10.732 0.05809 5.40002 0.03609 5.35302C-0.10491 5.00802 0.19109 4.82002 0.51109 4.82002H3.39709C3.78409 4.82002 3.91009 5.05402 3.99809 5.26402C4.10009 5.50502 4.47809 6.46902 5.09809 7.55202C6.10209 9.31402 6.71909 10.031 7.21209 10.031C7.30469 10.0312 7.39572 10.007 7.47609 9.96102C8.12009 9.60702 8.00009 7.30702 7.97009 6.83302C7.97009 6.74102 7.96909 5.80602 7.63909 5.35402C7.40309 5.03002 7.00109 4.90402 6.75809 4.85802C6.82309 4.76402 6.96109 4.62002 7.13809 4.53502C7.57909 4.31502 8.37609 4.28302 9.16709 4.28302H9.60609C10.4641 4.29502 10.6861 4.35002 10.9981 4.42902C11.6261 4.57902 11.6381 4.98602 11.5831 6.37202C11.5671 6.76802 11.5501 7.21402 11.5501 7.73902C11.5501 7.85102 11.5451 7.97602 11.5451 8.10302C11.5261 8.81402 11.5011 9.61502 12.0031 9.94402C12.068 9.98509 12.1433 10.0066 12.2201 10.006C12.3941 10.006 12.9151 10.006 14.3281 7.58102C14.9481 6.51002 15.4281 5.24702 15.4611 5.15202C15.4891 5.09902 15.5731 4.95002 15.6751 4.89002C15.748 4.85227 15.829 4.83303 15.9111 4.83402H19.3061C19.6761 4.83402 19.9271 4.89002 19.9761 5.03002C20.0581 5.25702 19.9601 5.95002 18.4101 8.04602C18.1491 8.39502 17.9201 8.69702 17.7191 8.96102C16.3141 10.805 16.3141 10.898 17.8021 12.298Z"  />
</g>
</svg>
